# xmcd
#
# Track frame offsets: 
#        150
#        23030
#        42669
#        58745
#        83517
#        102374
#        117659
#        132145
#
# Disc length: 1963 seconds
#
# Revision: 0
# Processed by: cddbd v1.5.2PL0 Copyright (c) Steve Scherf et al.
# Submitted via: ExactAudioCopyFreeDBPlugin 1.0
#
DISCID=6807a908
DTITLE=Diana Rein - The Back Room
DYEAR=2007
DGENRE=Blues
TTITLE0=You'll Be Mine
TTITLE1=Goodbye
TTITLE2=So Sexy
TTITLE3=The Back Room
TTITLE4=Till You Came Along
TTITLE5=Will Love Ever Last
TTITLE6=Gotten Over You
TTITLE7=Take It Back
EXTD=CD Baby id:dianareinBarcode: 733792737525
EXTT0=
EXTT1=
EXTT2=
EXTT3=
EXTT4=
EXTT5=
EXTT6=
EXTT7=
PLAYORDER=
